<svg fill="#FFFFFF" xmlns="http://www.w3.org/2000/svg" xmlns:xlink="http://www.w3.org/1999/xlink" version="1.1" x="0px" y="0px" viewBox="0 0 100 100" style="enable-background:new 0 0 100 100;" xml:space="preserve"><g><path d="M65.3,43.8c1.2-2.5,1.9-5.4,1.9-8.5c0-10.2-7.7-18.6-17.2-18.6S32.8,25,32.8,35.3c0,3.1,0.7,5.9,1.9,8.5   c-9,2-15.7,10.1-15.7,19.8v10.8c0,5,4,9,9,9h44c5,0,9-4,9-9V63.5C81,53.8,74.3,45.7,65.3,43.8z M50,22.7c6.2,0,11.2,5.6,11.2,12.6   s-5,12.6-11.2,12.6s-11.2-5.6-11.2-12.6S43.8,22.7,50,22.7z M75,74.3c0,1.7-1.3,3-3,3H28c-1.7,0-3-1.3-3-3V63.5   c0-7.8,6.1-14.1,13.7-14.2c3,2.8,7,4.5,11.3,4.5s8.2-1.7,11.3-4.5C68.9,49.4,75,55.7,75,63.5V74.3z"></path></g></svg>