<?xml version="1.0" encoding="utf-8"?>
<!-- Generator: Adobe Illustrator 21.0.0, SVG Export Plug-In . SVG Version: 6.00 Build 0)  -->
<svg version="1.1" id="Layer_1" xmlns="http://www.w3.org/2000/svg" xmlns:xlink="http://www.w3.org/1999/xlink" x="0px" y="0px"
	 viewBox="0 0 100 100" style="enable-background:new 0 0 100 100;" xml:space="preserve">
<style type="text/css">
	.st0{fill:#FF0000;}
</style>
<title>62 all</title>
<path class="st0" d="M72.5,42.4v-8.4c0-12.4-10.1-22.5-22.5-22.5S27.5,21.6,27.5,34.1v8.4c-4.6,2.1-7.5,6.7-7.5,11.8v21.3
	c0,7.2,5.8,13,13,13h34c7.2,0,13-5.8,13-13V54.2C80,49.1,77.1,44.6,72.5,42.4z M50,72.6c-2.8,0-5.1-2.3-5.1-5.1
	c0-2.8,2.3-5.1,5.1-5.1s5.1,2.3,5.1,5.1c0,0,0,0,0,0C55.1,70.3,52.8,72.6,50,72.6z M66.5,41.2h-33v-7.1c0-9.1,7.4-16.5,16.5-16.5
	s16.5,7.4,16.5,16.5l0,0V41.2z"/>
</svg>
